<?xml version="1.0" encoding="utf-8"?>
<!-- Generator: Adobe Illustrator 16.0.0, SVG Export Plug-In . SVG Version: 6.00 Build 0)  -->
<!DOCTYPE svg PUBLIC "-//W3C//DTD SVG 1.1//EN" "http://www.w3.org/Graphics/SVG/1.1/DTD/svg11.dtd">
<svg version="1.1" id="Capa_1" xmlns="http://www.w3.org/2000/svg" xmlns:xlink="http://www.w3.org/1999/xlink" x="0px" y="0px"
	 width="96.343px" height="96.344px" viewBox="0 0 96.343 96.344" enable-background="new 0 0 96.343 96.344" xml:space="preserve">
<g>
	<path fill="#00F929" d="M94.171,20.444L82.449,10.222L70.728,0L59.005,10.222L47.283,20.444h12.828
		C55.792,46.975,31.278,67.613,3.382,63.225c-1.227-0.191-1.724,1.46-0.518,1.879c34.716,12.082,74.712-7.771,80.497-44.66H94.171z"
		/>
	<path fill="#CC4C9B" d="M68.171,54.722c-3.604,3.332-7.635,6.234-12,8.663v32.958h12V54.722z"/>
	<path fill="#FEE93C" d="M38.171,96.344h12v-30.02c-3.813,1.625-7.827,2.906-12,3.802V96.344z"/>
	<path fill="#F36B22" d="M74.171,96.344h12V23.444h-0.303c-1.884,9.304-5.972,17.725-11.697,24.837V96.344z"/>
	<path fill="#EF0A0A" d="M14.171,70.927c-4.075-0.597-8.088-1.553-12-2.896v28.312h12V70.927z"/>
	<path fill="#61CBE6" d="M20.171,96.344h12V71.135c-2.729,0.33-5.51,0.505-8.335,0.505c-1.226,0-2.447-0.046-3.665-0.112V96.344z"/>
</g>
</svg>
